<?xml version="1.0" encoding="utf-8"?>
<!-- Generator: Adobe Illustrator 19.2.0, SVG Export Plug-In . SVG Version: 6.00 Build 0)  -->
<svg version="1.0" id="Capa_1" xmlns="http://www.w3.org/2000/svg" xmlns:xlink="http://www.w3.org/1999/xlink" x="0px" y="0px"
	 viewBox="0 0 363 223.7" style="enable-background:new 0 0 363 223.7;" xml:space="preserve">
<style type="text/css">
	.st0{fill:#4E3112;}
	.st1{fill:#009CA2;}
	.st2{fill:none;}
	.st3{fill:#009C7A;}
	.st4{fill:#7BC6BE;}
	.st5{fill:#00804E;}
	.st6{fill:#007D5D;}
	.st7{fill:#009C6F;}
	.st8{fill:#007C6D;}
	.st9{fill:#73C5CC;}
	.st10{fill:#00AFC1;}
	.st11{fill:#97D3E0;}
	.st12{fill:#009C9E;}
	.st13{fill:#007A78;}
	.st14{fill:#76C7D1;}
	.st15{fill:#00AEC0;}
	.st16{fill:#009B5E;}
	.st17{fill:#009A8E;}
	.st18{fill:#7CC9D8;}
	.st19{fill:#008097;}
	.st20{fill:#00AEBE;}
	.st21{fill:#009B50;}
	.st22{fill:#00AA87;}
	.st23{fill:#009DA4;}
	.st24{fill:#007C7A;}
	.st25{fill:#00AAA7;}
	.st26{fill:#009C7D;}
	.st27{fill:#00AB95;}
	.st28{fill:#74C5C4;}
	.st29{fill:#00AAA1;}
	.st30{fill:#009B86;}
	.st31{fill:#009C85;}
	.st32{fill:#007C65;}
	.st33{fill:#007B6C;}
	.st34{fill:#007F8A;}
	.st35{fill:#71C5D2;}
	.st36{fill:#009EAF;}
	.st37{fill:#009FA5;}
	.st38{fill:#00AEBD;}
	.st39{fill:#00AEC1;}
	.st40{fill:#7DC9D6;}
	.st41{fill:#007F89;}
	.st42{fill:#00AEBA;}
	.st43{fill:#9A9A99;}
	.st44{fill:#00ABB1;}
	.st45{fill:#00A0A8;}
	.st46{fill:#585756;}
	.st47{fill:#009190;}
	.st48{fill:#77C7D1;}
	.st49{fill:#C4C3C3;}
	.st50{fill:#007B7E;}
	.st51{fill:#72C5CC;}
	.st52{fill:#00ABB0;}
	.st53{fill:#009893;}
	.st54{fill:#00ADB6;}
	.st55{fill:#706F6F;}
	.st56{fill:#008D89;}
	.st57{fill:#00AAAD;}
	.st58{fill:#72C5C9;}
	.st59{fill:#009C94;}
	.st60{fill:#009C4D;}
	.st61{fill:#009C57;}
	.st62{fill:#00833C;}
	.st63{fill:#00803C;}
	.st64{fill:#00602F;}
	.st65{fill:#004F29;}
	.st66{fill:#00A561;}
	.st67{fill:#87C7A7;}
	.st68{fill:#87C7AD;}
	.st69{fill:#00A055;}
	.st70{fill:#006331;}
	.st71{fill:#003D1F;}
	.st72{fill:#005A2E;}
	.st73{fill:#009B76;}
	.st74{fill:#76C5C4;}
	.st75{fill:#007D60;}
	.st76{fill:#004121;}
	.st77{fill:#007538;}
	.st78{fill:#009D4F;}
	.st79{fill:#00AA80;}
	.st80{fill:#00843C;}
	.st81{fill:#009944;}
	.st82{fill:#006B34;}
	.st83{fill:#00853C;}
	.st84{fill:#006030;}
	.st85{fill:#11A96D;}
	.st86{fill:#86377F;}
	.st87{fill:#00552B;}
	.st88{fill:#008146;}
	.st89{fill:#13AA79;}
	.st90{fill:#00803B;}
	.st91{fill:#009C4B;}
	.st92{fill:#00B1C7;}
	.st93{fill:#7AC9D9;}
	.st94{fill:#0084B1;}
	.st95{fill:#73C6D5;}
	.st96{fill:#00A1B8;}
	.st97{fill:#82CBD3;}
	.st98{fill:#00AEC3;}
	.st99{fill:#009FC2;}
	.st100{fill:#0086AF;}
	.st101{fill:#00A4CF;}
	.st102{fill:#00B4D6;}
	.st103{fill:#7FCBE0;}
	.st104{fill:#26A9D2;}
	.st105{fill:#006BAA;}
	.st106{fill:#00B0C6;}
	.st107{fill:#9FB7E0;}
	.st108{fill:#6689C0;}
	.st109{fill:#FFFFFF;}
	.st110{fill:url(#SVGID_1_);}
	.st111{fill:url(#SVGID_2_);}
	.st112{fill:url(#SVGID_3_);}
	.st113{fill:#2397D4;}
	.st114{fill:#426DB2;}
	.st115{fill:#623F1B;}
	.st116{fill:#7F5630;}
	.st117{fill:#A78052;}
	.st118{fill:#CDA480;}
	.st119{fill:#E2CAB5;}
	.st120{fill:#8B5B37;}
	.st121{fill:#5C3819;}
	.st122{fill:#824F2A;}
	.st123{fill:#B78E6D;}
	.st124{fill:#6A4527;}
	.st125{fill:#8E5E39;}
</style>
<g>
	<g>
		<g>
			<path class="st0" d="M121.8,203.6h1.3l0.3,5.4h-1.2l-0.1-2.2l-0.8,2.2H120l-0.8-2.3l-0.1,2.3h-1.3l0.3-5.4h1.3l1.2,3.4
				L121.8,203.6z"/>
			<path class="st0" d="M127.5,204.8h-2.2v0.8h1.8v1.2h-1.8v0.9h2.2v1.2h-3.5v-5.4h3.5V204.8z M125.2,203.1l0.6-1.2h1.1l-0.6,1.2
				H125.2z"/>
			<path class="st0" d="M130.2,207.6c-0.1,0-0.1,0-0.2,0c-0.1,0-0.1,0-0.2,0v1.4h-1.2v-5.4h1.2c0.3,0,0.6,0.1,0.9,0.2
				c0.3,0.1,0.5,0.3,0.7,0.4c0.2,0.2,0.4,0.4,0.5,0.6c0.1,0.2,0.2,0.5,0.2,0.8c0,0.3-0.1,0.6-0.2,0.8c-0.1,0.2-0.3,0.5-0.5,0.6
				l1.2,1.9h-1.5L130.2,207.6z M129.8,206.4c0.1,0,0.3,0,0.4-0.1c0.1,0,0.2-0.1,0.3-0.2c0.1-0.1,0.2-0.1,0.2-0.2
				c0.1-0.1,0.1-0.2,0.1-0.3c0-0.1,0-0.2-0.1-0.3c-0.1-0.1-0.1-0.2-0.2-0.2c-0.1-0.1-0.2-0.1-0.3-0.2c-0.1,0-0.2-0.1-0.4-0.1V206.4z
				"/>
			<path class="st0" d="M134.7,209h-1.2v-5.4h1.2V209z"/>
			<path class="st0" d="M136.9,203.6c0.4,0,0.7,0.1,1,0.3c0.3,0.2,0.6,0.4,0.8,0.6c0.2,0.2,0.4,0.5,0.6,0.9c0.1,0.3,0.2,0.7,0.2,1
				c0,0.4-0.1,0.7-0.2,1c-0.1,0.3-0.3,0.6-0.6,0.8c-0.2,0.2-0.5,0.4-0.8,0.6c-0.3,0.1-0.7,0.2-1,0.2h-1.2v-5.4L136.9,203.6
				L136.9,203.6z M136.9,207.7c0.2,0,0.4-0.1,0.5-0.2c0.2-0.1,0.3-0.2,0.4-0.3c0.1-0.1,0.2-0.3,0.3-0.4c0.1-0.2,0.1-0.3,0.1-0.5
				c0-0.2,0-0.4-0.1-0.5c-0.1-0.2-0.2-0.3-0.3-0.5c-0.1-0.1-0.3-0.2-0.4-0.3c-0.2-0.1-0.3-0.1-0.5-0.2V207.7z"/>
			<path class="st0" d="M143.2,209l-0.2-0.7h-1.7l-0.2,0.7h-1.3l1.8-5.4h1.2l1.8,5.4H143.2z M141.8,207.1h0.9l-0.4-1.3L141.8,207.1z
				"/>
			<path class="st0" d="M144.9,209.8l0.6-1.5h1.1l-0.6,1.5H144.9z"/>
			<path class="st0" d="M150,209l0.6-1.5l-1.9-3.9h1.4l1.1,2.3l1-2.3h1.4l-2.2,5.4H150z"/>
			<path class="st0" d="M156.8,209c-0.3,0-0.5-0.1-0.8-0.2c-0.2-0.1-0.5-0.2-0.7-0.4c-0.2-0.2-0.3-0.4-0.5-0.7
				c-0.1-0.2-0.2-0.5-0.2-0.8v-3.4h1.2v3.4c0,0.2,0.1,0.4,0.2,0.6c0.2,0.2,0.4,0.2,0.6,0.2c0.1,0,0.2,0,0.3-0.1
				c0.1,0,0.2-0.1,0.3-0.2c0.1-0.1,0.1-0.2,0.2-0.3c0-0.1,0.1-0.2,0.1-0.3v-3.4h1.2v3.3c0,0.3,0,0.5-0.2,0.8
				c-0.1,0.3-0.3,0.5-0.4,0.7c-0.2,0.2-0.4,0.3-0.7,0.4C157.3,208.9,157.1,209,156.8,209L156.8,209z"/>
			<path class="st0" d="M162.3,209c-0.3,0-0.7-0.1-1-0.2c-0.3-0.1-0.6-0.3-0.9-0.6c-0.3-0.3-0.5-0.6-0.6-0.9c-0.1-0.3-0.2-0.7-0.2-1
				c0-0.4,0.1-0.7,0.2-1c0.1-0.3,0.3-0.6,0.6-0.9c0.3-0.3,0.6-0.5,0.9-0.6c0.3-0.1,0.7-0.2,1-0.2c0.3,0,0.7,0.1,1,0.2
				c0.3,0.1,0.6,0.3,0.9,0.6l-0.9,0.9c-0.1-0.1-0.3-0.2-0.5-0.3c-0.2-0.1-0.4-0.1-0.6-0.1c-0.2,0-0.4,0-0.6,0.1
				c-0.2,0.1-0.3,0.2-0.5,0.3c-0.1,0.1-0.2,0.3-0.3,0.5c-0.1,0.2-0.1,0.4-0.1,0.6c0,0.2,0,0.4,0.1,0.6c0.1,0.2,0.2,0.3,0.3,0.5
				c0.1,0.1,0.3,0.2,0.5,0.3c0.2,0.1,0.4,0.1,0.6,0.1c0.2,0,0.4,0,0.6-0.1c0.2-0.1,0.3-0.2,0.5-0.3l0.9,0.9
				c-0.3,0.3-0.6,0.5-0.9,0.6C163,208.9,162.6,209,162.3,209z"/>
			<path class="st0" d="M168,209l-0.2-0.7h-1.7l-0.2,0.7h-1.3l1.8-5.4h1.2l1.8,5.4H168z M166.6,207.1h0.9l-0.4-1.3L166.6,207.1z"/>
			<path class="st0" d="M173.2,203.6v1.2h-1v4.2h-1.2v-4.2h-1v-1.2H173.2z"/>
			<path class="st0" d="M177.2,209l-0.2-0.7h-1.7l-0.2,0.7h-1.3l1.8-5.4h1.2l1.8,5.4H177.2z M175.7,203.1l0.6-1.2h1.1l-0.6,1.2
				H175.7z M175.7,207.1h0.9l-0.4-1.3L175.7,207.1z"/>
			<path class="st0" d="M182.4,203.6h1.2v5.4h-1.4l-1.8-3.2v3.2h-1.2v-5.4h1.4l1.8,3.1V203.6z"/>
			<path class="st0" d="M184.3,209.8l0.6-1.5h1.1l-0.6,1.5H184.3z"/>
			<path class="st0" d="M192.2,203.6h1.3l0.3,5.4h-1.2l-0.1-2.2l-0.8,2.2h-1.2l-0.8-2.3l-0.1,2.3h-1.3l0.3-5.4h1.3l1.2,3.4
				L192.2,203.6z"/>
			<path class="st0" d="M197.9,204.8h-2.2v0.8h1.8v1.2h-1.8v0.9h2.2v1.2h-3.5v-5.4h3.5V204.8z M195.6,203.1l0.6-1.2h1.1l-0.6,1.2
				H195.6z"/>
			<path class="st0" d="M203.3,203.5l-1.6,2.6l1.7,2.8H202l-1-1.6l-1,1.6h-1.5l1.7-2.8l-1.6-2.6h1.5l0.9,1.4l0.9-1.4H203.3z"/>
			<path class="st0" d="M205.5,209h-1.2v-5.4h1.2V209z"/>
			<path class="st0" d="M208.9,209c-0.3,0-0.7-0.1-1-0.2c-0.3-0.1-0.6-0.3-0.9-0.6c-0.3-0.3-0.5-0.6-0.6-0.9c-0.1-0.3-0.2-0.7-0.2-1
				c0-0.4,0.1-0.7,0.2-1c0.1-0.3,0.3-0.6,0.6-0.9c0.3-0.3,0.6-0.5,0.9-0.6c0.3-0.1,0.7-0.2,1-0.2c0.3,0,0.7,0.1,1,0.2
				c0.3,0.1,0.6,0.3,0.9,0.6l-0.9,0.9c-0.1-0.1-0.3-0.2-0.5-0.3c-0.2-0.1-0.4-0.1-0.6-0.1c-0.2,0-0.4,0-0.6,0.1
				c-0.2,0.1-0.3,0.2-0.5,0.3c-0.1,0.1-0.2,0.3-0.3,0.5c-0.1,0.2-0.1,0.4-0.1,0.6c0,0.2,0,0.4,0.1,0.6c0.1,0.2,0.2,0.3,0.3,0.5
				c0.1,0.1,0.3,0.2,0.5,0.3c0.2,0.1,0.4,0.1,0.6,0.1c0.2,0,0.4,0,0.6-0.1c0.2-0.1,0.3-0.2,0.5-0.3l0.9,0.9
				c-0.3,0.3-0.6,0.5-0.9,0.6C209.6,208.9,209.3,209,208.9,209z"/>
			<path class="st0" d="M213.9,203.6c0.4,0,0.7,0.1,1.1,0.2c0.3,0.1,0.6,0.3,0.9,0.6c0.2,0.2,0.4,0.5,0.6,0.9
				c0.1,0.3,0.2,0.7,0.2,1.1c0,0.4-0.1,0.7-0.2,1.1c-0.1,0.3-0.3,0.6-0.6,0.9c-0.2,0.2-0.5,0.4-0.9,0.6c-0.3,0.1-0.7,0.2-1.1,0.2
				c-0.4,0-0.7-0.1-1.1-0.2c-0.3-0.1-0.6-0.3-0.9-0.6c-0.2-0.2-0.4-0.5-0.6-0.9c-0.1-0.3-0.2-0.7-0.2-1.1c0-0.4,0.1-0.7,0.2-1.1
				c0.1-0.3,0.3-0.6,0.6-0.9c0.2-0.2,0.5-0.4,0.9-0.6C213.2,203.6,213.5,203.6,213.9,203.6z M213.9,207.7c0.2,0,0.4,0,0.6-0.1
				c0.2-0.1,0.3-0.2,0.5-0.3c0.1-0.1,0.2-0.3,0.3-0.5c0.1-0.2,0.1-0.4,0.1-0.6c0-0.2,0-0.4-0.1-0.6c-0.1-0.2-0.2-0.3-0.3-0.5
				c-0.1-0.1-0.3-0.2-0.5-0.3c-0.2-0.1-0.4-0.1-0.6-0.1c-0.2,0-0.4,0-0.6,0.1c-0.2,0.1-0.3,0.2-0.5,0.3c-0.1,0.1-0.2,0.3-0.3,0.5
				c-0.1,0.2-0.1,0.4-0.1,0.6c0,0.2,0,0.4,0.1,0.6c0.1,0.2,0.2,0.3,0.3,0.5c0.1,0.1,0.3,0.2,0.5,0.3
				C213.5,207.7,213.7,207.7,213.9,207.7z"/>
			<path class="st1" d="M225.9,207.7v1.2h-3.6v-1.3c0.4-0.2,0.7-0.4,1-0.7c0.3-0.2,0.5-0.4,0.8-0.6c0.2-0.2,0.4-0.4,0.5-0.6
				c0.1-0.2,0.2-0.3,0.2-0.4c0-0.2-0.1-0.3-0.2-0.4c-0.1-0.1-0.2-0.2-0.4-0.2c-0.2,0-0.3,0.1-0.4,0.2c-0.1,0.1-0.2,0.2-0.2,0.4h-1.3
				c0-0.3,0-0.5,0.1-0.7c0.1-0.2,0.2-0.4,0.4-0.6c0.2-0.2,0.4-0.3,0.6-0.4c0.2-0.1,0.5-0.1,0.7-0.1c0.3,0,0.5,0,0.7,0.1
				c0.2,0.1,0.4,0.2,0.6,0.4c0.2,0.2,0.3,0.4,0.4,0.6c0.1,0.2,0.1,0.5,0.1,0.7c0,0.7-0.5,1.5-1.6,2.3H225.9z"/>
			<path class="st1" d="M228.8,209c-0.3,0-0.5,0-0.7-0.1c-0.2-0.1-0.4-0.2-0.6-0.4c-0.2-0.2-0.3-0.4-0.4-0.6
				c-0.1-0.2-0.1-0.5-0.1-0.7h1.2c0,0.2,0.1,0.3,0.2,0.4c0.1,0.1,0.2,0.2,0.4,0.2c0.2,0,0.3-0.1,0.4-0.2c0.1-0.1,0.2-0.2,0.2-0.4
				c0-0.2-0.1-0.3-0.2-0.4c-0.1-0.1-0.2-0.2-0.4-0.2H227v-3.1h3.4v1.2h-2.1v0.6h0.6c0.3,0,0.5,0,0.7,0.1c0.2,0.1,0.4,0.2,0.6,0.4
				c0.2,0.2,0.3,0.4,0.4,0.6c0.1,0.2,0.1,0.4,0.1,0.7c0,0.3,0,0.5-0.1,0.7c-0.1,0.2-0.2,0.4-0.4,0.6c-0.2,0.2-0.4,0.3-0.6,0.4
				C229.3,208.9,229.1,209,228.8,209z"/>
			<path class="st1" d="M236.9,206.9l-3.6,0v-1.2l3.6,0V206.9z"/>
			<path class="st1" d="M241.6,207.7v1.2H238v-1.3c0.4-0.2,0.7-0.4,1-0.7c0.3-0.2,0.5-0.4,0.8-0.6s0.4-0.4,0.5-0.6
				c0.1-0.2,0.2-0.3,0.2-0.4c0-0.2-0.1-0.3-0.2-0.4c-0.1-0.1-0.2-0.2-0.4-0.2c-0.2,0-0.3,0.1-0.4,0.2c-0.1,0.1-0.2,0.2-0.2,0.4H238
				c0-0.3,0-0.5,0.1-0.7c0.1-0.2,0.2-0.4,0.4-0.6c0.2-0.2,0.4-0.3,0.6-0.4c0.2-0.1,0.5-0.1,0.7-0.1c0.3,0,0.5,0,0.7,0.1
				c0.2,0.1,0.4,0.2,0.6,0.4c0.2,0.2,0.3,0.4,0.4,0.6c0.1,0.2,0.1,0.5,0.1,0.7c0,0.7-0.5,1.5-1.6,2.3H241.6z"/>
			<path class="st1" d="M242.8,209l1.7-4.2h-1.9v-1.2h3.8l-2.2,5.4H242.8z"/>
			<path class="st1" d="M252,209l-0.2-0.7h-1.7l-0.2,0.7h-1.3l1.8-5.4h1.2l1.8,5.4H252z M250.5,207.1h0.9l-0.4-1.3L250.5,207.1z"/>
			<path class="st1" d="M257,205.7c0.2,0.2,0.4,0.4,0.5,0.6c0.1,0.2,0.2,0.5,0.2,0.8c0,0.3-0.1,0.5-0.2,0.7
				c-0.1,0.2-0.3,0.4-0.4,0.6c-0.2,0.2-0.4,0.3-0.7,0.4c-0.3,0.1-0.5,0.1-0.8,0.1h-1.6v-5.4l1.4,0c0.2,0,0.4,0,0.6,0.1
				c0.2,0.1,0.4,0.2,0.5,0.3c0.2,0.1,0.3,0.3,0.4,0.5c0.1,0.2,0.1,0.4,0.1,0.6C257.2,205.3,257.1,205.5,257,205.7z M255.3,204.8v0.5
				h0.2c0.1,0,0.2,0,0.3-0.1c0.1-0.1,0.1-0.1,0.1-0.2c0,0,0-0.1-0.1-0.2c-0.1-0.1-0.2-0.1-0.3-0.1H255.3z M255.6,207.7
				c0.1,0,0.2,0,0.3,0c0.1,0,0.2-0.1,0.3-0.1c0.1-0.1,0.1-0.1,0.2-0.2c0-0.1,0.1-0.1,0.1-0.2c0-0.1,0-0.2-0.1-0.2
				c0-0.1-0.1-0.1-0.2-0.2c-0.1-0.1-0.2-0.1-0.3-0.1c-0.1,0-0.2,0-0.3,0h-0.1h0h-0.2v1.2H255.6z"/>
			<path class="st1" d="M260.2,207.6c-0.1,0-0.1,0-0.2,0c-0.1,0-0.1,0-0.2,0v1.4h-1.2v-5.4h1.2c0.3,0,0.6,0.1,0.9,0.2
				c0.3,0.1,0.5,0.3,0.7,0.4c0.2,0.2,0.4,0.4,0.5,0.6c0.1,0.2,0.2,0.5,0.2,0.8c0,0.3-0.1,0.6-0.2,0.8c-0.1,0.2-0.3,0.5-0.5,0.6
				l1.2,1.9H261L260.2,207.6z M259.8,206.4c0.1,0,0.3,0,0.4-0.1c0.1,0,0.2-0.1,0.3-0.2c0.1-0.1,0.2-0.1,0.2-0.2
				c0.1-0.1,0.1-0.2,0.1-0.3c0-0.1,0-0.2-0.1-0.3c-0.1-0.1-0.1-0.2-0.2-0.2c-0.1-0.1-0.2-0.1-0.3-0.2c-0.1,0-0.2-0.1-0.4-0.1V206.4z
				"/>
			<path class="st1" d="M264.7,209h-1.2v-5.4h1.2V209z"/>
			<path class="st1" d="M269,209h-3.2v-5.4h1.2v4.2h2V209z"/>
			<path class="st1" d="M269.5,209.8l0.6-1.5h1.1l-0.6,1.5H269.5z"/>
			<path class="st1" d="M277.4,207.7v1.2h-3.6v-1.3c0.4-0.2,0.7-0.4,1-0.7c0.3-0.2,0.5-0.4,0.8-0.6s0.4-0.4,0.5-0.6
				c0.1-0.2,0.2-0.3,0.2-0.4c0-0.2-0.1-0.3-0.2-0.4c-0.1-0.1-0.2-0.2-0.4-0.2c-0.2,0-0.3,0.1-0.4,0.2c-0.1,0.1-0.2,0.2-0.2,0.4h-1.3
				c0-0.3,0-0.5,0.1-0.7c0.1-0.2,0.2-0.4,0.4-0.6c0.2-0.2,0.4-0.3,0.6-0.4c0.2-0.1,0.5-0.1,0.7-0.1c0.3,0,0.5,0,0.7,0.1
				c0.2,0.1,0.4,0.2,0.6,0.4c0.2,0.2,0.3,0.4,0.4,0.6c0.1,0.2,0.1,0.5,0.1,0.7c0,0.7-0.5,1.5-1.6,2.3H277.4z"/>
			<path class="st1" d="M280.9,203.6c0.4,0,0.7,0.1,1.1,0.2c0.3,0.1,0.6,0.3,0.9,0.6c0.2,0.2,0.4,0.5,0.6,0.9
				c0.1,0.3,0.2,0.7,0.2,1.1c0,0.4-0.1,0.7-0.2,1.1c-0.1,0.3-0.3,0.6-0.6,0.9c-0.2,0.2-0.5,0.4-0.9,0.6c-0.3,0.1-0.7,0.2-1.1,0.2
				c-0.4,0-0.7-0.1-1.1-0.2c-0.3-0.1-0.6-0.3-0.9-0.6c-0.2-0.2-0.4-0.5-0.6-0.9c-0.1-0.3-0.2-0.7-0.2-1.1c0-0.4,0.1-0.7,0.2-1.1
				c0.1-0.3,0.3-0.6,0.6-0.9c0.2-0.2,0.5-0.4,0.9-0.6C280.1,203.6,280.5,203.6,280.9,203.6z M280.9,207.7c0.2,0,0.4,0,0.6-0.1
				c0.2-0.1,0.3-0.2,0.5-0.3c0.1-0.1,0.2-0.3,0.3-0.5s0.1-0.4,0.1-0.6c0-0.2,0-0.4-0.1-0.6c-0.1-0.2-0.2-0.3-0.3-0.5
				c-0.1-0.1-0.3-0.2-0.5-0.3c-0.2-0.1-0.4-0.1-0.6-0.1c-0.2,0-0.4,0-0.6,0.1c-0.2,0.1-0.3,0.2-0.5,0.3c-0.1,0.1-0.2,0.3-0.3,0.5
				c-0.1,0.2-0.1,0.4-0.1,0.6c0,0.2,0,0.4,0.1,0.6c0.1,0.2,0.2,0.3,0.3,0.5c0.1,0.1,0.3,0.2,0.5,0.3
				C280.5,207.7,280.7,207.7,280.9,207.7z"/>
			<path class="st1" d="M285.7,203.6h1.2v5.4h-1.2v-3.4l-0.4,0.5l-1-0.8L285.7,203.6z"/>
			<path class="st1" d="M290.9,205.9c0.2,0.2,0.3,0.4,0.4,0.6c0.1,0.2,0.1,0.5,0.1,0.7c0,0.3,0,0.5-0.1,0.7
				c-0.1,0.2-0.2,0.4-0.4,0.6c-0.2,0.2-0.4,0.3-0.6,0.4c-0.2,0.1-0.5,0.1-0.7,0.1c-0.3,0-0.5,0-0.7-0.1c-0.2-0.1-0.4-0.2-0.6-0.4
				c-0.2-0.2-0.3-0.4-0.4-0.6c-0.1-0.2-0.1-0.5-0.1-0.7c0-0.3,0-0.5,0.1-0.7c0.1-0.2,0.2-0.4,0.4-0.6c-0.1-0.1-0.1-0.2-0.2-0.4
				c0-0.1-0.1-0.3-0.1-0.4c0-0.2,0-0.4,0.1-0.6c0.1-0.2,0.2-0.3,0.3-0.5s0.3-0.2,0.5-0.3c0.2-0.1,0.4-0.1,0.6-0.1
				c0.2,0,0.4,0,0.6,0.1c0.2,0.1,0.3,0.2,0.5,0.3s0.2,0.3,0.3,0.5c0.1,0.2,0.1,0.4,0.1,0.6c0,0.1,0,0.3-0.1,0.4
				C291,205.6,290.9,205.8,290.9,205.9z M289.6,207.7c0.2,0,0.3-0.1,0.4-0.2c0.1-0.1,0.2-0.2,0.2-0.4c0-0.2-0.1-0.3-0.2-0.4
				c-0.1-0.1-0.2-0.2-0.4-0.2c-0.2,0-0.3,0.1-0.4,0.2c-0.1,0.1-0.2,0.2-0.2,0.4c0,0.2,0.1,0.3,0.2,0.4
				C289.3,207.7,289.4,207.7,289.6,207.7z M289.6,204.8c-0.1,0-0.1,0-0.2,0.1c-0.1,0.1-0.1,0.1-0.1,0.2c0,0.1,0,0.1,0.1,0.2
				c0.1,0.1,0.1,0.1,0.2,0.1c0.1,0,0.1,0,0.2-0.1c0.1-0.1,0.1-0.1,0.1-0.2c0-0.1,0-0.1-0.1-0.2C289.7,204.8,289.6,204.8,289.6,204.8
				z"/>
		</g>
	</g>
	<g>
		<g>
			<g>
				<g>
					<g>
						<g>
							<polygon class="st3" points="99.1,25.2 104.5,45.5 79,25.2 							"/>
							<polygon class="st4" points="79,25.2 79.8,51 104.5,45.5 							"/>
							<polygon class="st5" points="79,25.2 63.2,30 79.8,51 							"/>
							<polygon class="st6" points="104.5,45.5 112.4,65.6 79.8,51 							"/>
							<polygon class="st7" points="112.4,65.6 75,66.3 79.8,51 							"/>
							<polygon class="st8" points="99.1,25.2 120.1,16.2 104.5,45.5 							"/>
							<polygon class="st9" points="137.9,33.9 120.1,16.2 104.5,45.5 							"/>
							<polygon class="st10" points="137.9,33.9 163.3,37.5 145.4,43.5 							"/>
							<polygon class="st11" points="174.4,55.9 163.3,37.5 145.4,43.5 							"/>
							<polygon class="st12" points="145.4,43.5 104.5,45.5 137.9,33.9 							"/>
							<polygon class="st13" points="145.4,43.5 126.1,52.1 104.5,45.5 							"/>
							<polygon class="st14" points="154.6,58.6 126.1,52.1 145.4,43.5 							"/>
							<polygon class="st15" points="174.4,55.9 154.6,58.6 145.4,43.5 							"/>
							<polygon class="st16" points="63.2,30 53,48.7 79.8,51 							"/>
							<polygon class="st17" points="112.4,65.6 126.1,52.1 104.5,45.5 							"/>
							<polygon class="st18" points="154.6,58.6 177.5,74.1 174.4,55.9 							"/>
							<polygon class="st19" points="177.5,74.1 166.2,83.9 154.6,58.6 							"/>
							<polygon class="st1" points="126.1,52.1 139.6,74.6 154.6,58.6 							"/>
							<polygon class="st13" points="112.4,65.6 139.6,74.6 126.1,52.1 							"/>
							<polygon class="st20" points="139.6,74.6 166.2,83.9 154.6,58.6 							"/>
							<polygon class="st21" points="53,48.7 37.9,58 75,66.3 							"/>
							<polygon class="st22" points="79.8,51 75,66.3 53,48.7 							"/>
							<polygon class="st23" points="166.2,83.9 138.8,83.9 139.6,74.6 							"/>
							<polygon class="st24" points="138.8,83.9 117.7,83.9 139.6,74.6 							"/>
							<polygon class="st25" points="112.4,65.6 117.7,83.9 139.6,74.6 							"/>
							<polygon class="st26" points="112.4,65.6 105.4,81.5 79.5,81.4 							"/>
							<polygon class="st27" points="75,66.3 79.5,81.4 112.4,65.6 							"/>
							<polygon class="st28" points="117.7,83.9 105.4,81.5 112.4,65.6 							"/>
							<polygon class="st29" points="117.7,83.9 105.4,106 105.4,81.5 							"/>
							<polygon class="st30" points="111.6,116.2 121.3,119.8 117.8,109 							"/>
							<polygon class="st31" points="105.4,106 117.8,109 117.7,83.9 							"/>
							<polygon class="st32" points="117.8,109 105.4,106 111.6,116.2 							"/>
							<polygon class="st33" points="133.9,109 121.3,119.8 117.8,109 							"/>
							<polygon class="st34" points="166.2,83.9 155.7,96.5 147.9,83.9 							"/>
							<polygon class="st35" points="161.2,89.9 167.3,99.3 155.7,96.5 							"/>
							<polygon class="st36" points="167.3,99.3 172.9,102.7 157.6,109 							"/>
							<polygon class="st37" points="155.7,96.5 157.6,109 151.8,100.7 							"/>
							<polygon class="st38" points="157.6,109 167.3,99.3 155.7,96.5 							"/>
							<polygon class="st39" points="172.9,102.7 170.9,110.7 157.6,109 							"/>
							<polygon class="st40" points="170.9,110.7 168.8,119.8 157.6,109 							"/>
							<polygon class="st41" points="157.6,109 157.6,120.3 168.8,119.8 							"/>
							<polygon class="st42" points="157.6,120.3 151.1,109 157.6,109 							"/>
							<polygon class="st23" points="157.6,120.3 146.1,116.5 151.1,109 							"/>
							<polygon class="st12" points="144.4,109 147.3,102.3 151.1,109 							"/>
							<polygon class="st43" points="133.9,109 134.1,103.4 117.8,109 							"/>
							<polygon class="st44" points="138.8,83.9 133.9,109 134.1,83.9 							"/>
							<polygon class="st45" points="144.4,89.5 151.4,96.7 151.4,89.5 							"/>
							<polygon class="st46" points="138.8,83.9 138.8,109 144.4,83.9 							"/>
							<polygon class="st47" points="138.8,83.9 138.8,109 133.9,109 							"/>
							<polygon class="st48" points="151.4,96.7 144.4,96.7 144.4,89.5 							"/>
							<polygon class="st49" points="151.1,109 151.8,100.7 147.3,102.3 							"/>
							<polygon class="st46" points="157.6,109 151.8,100.7 151.1,109 							"/>
							<polygon class="st50" points="138.8,109 146.1,116.5 151.1,109 							"/>
							<polygon class="st51" points="138.8,109 136.4,118.2 146.1,116.5 							"/>
							<polygon class="st52" points="133.9,109 136.4,118.2 138.8,109 							"/>
							<polygon class="st53" points="136.4,118.2 126.7,115.2 133.9,109 							"/>
							<polygon class="st54" points="144.4,109 144.4,102.3 147.3,102.3 							"/>
							<polygon class="st55" points="144.4,83.9 144.4,109 138.8,109 							"/>
							<polygon class="st55" points="151.4,96.7 147.3,102.3 144.4,96.7 							"/>
							<polygon class="st43" points="151.4,96.7 155.7,96.5 151.4,89.5 							"/>
							<polygon class="st49" points="151.8,100.7 151.4,96.7 155.7,96.5 							"/>
							<polygon class="st43" points="151.4,96.7 147.3,102.3 151.8,100.7 							"/>
							<polygon class="st49" points="144.4,96.7 147.3,102.3 144.4,102.3 							"/>
							<polygon class="st43" points="147.9,83.9 144.4,89.5 151.4,89.5 							"/>
							<polygon class="st46" points="144.4,83.9 147.9,83.9 144.4,89.5 							"/>
							<polygon class="st56" points="134.1,103.4 123.4,99.2 134.1,99.2 							"/>
							<polygon class="st57" points="123.4,103.4 134.1,103.4 123.4,99.2 							"/>
							<polygon class="st58" points="134.1,93.6 123.4,89.5 123.4,93.6 							"/>
							<polygon class="st59" points="134.1,89.5 134.1,93.6 123.4,89.5 							"/>
							<polygon class="st60" points="62.5,99.5 49.3,111.7 62.3,124.7 							"/>
							<polygon class="st61" points="62.3,124.7 71.1,132.7 79.4,120 							"/>
							<polygon class="st16" points="79.5,81.4 62.5,99.5 75,66.3 							"/>
							<polygon class="st62" points="39.4,124.4 35.1,132.1 51.7,131.6 							"/>
							<polygon class="st63" points="39.4,124.4 30.2,121.7 49.3,111.7 							"/>
							<polygon class="st64" points="26.9,84.3 27.3,99.2 14.6,99.3 							"/>
							<polygon class="st65" points="14.6,99.3 19.1,109 27.3,99.2 							"/>
							<polygon class="st66" points="49.3,111.7 51.7,131.6 39.4,124.4 							"/>
							<polygon class="st67" points="49.3,111.7 40.3,95 62.5,99.5 							"/>
							<polygon class="st68" points="37.9,58 58.3,71.2 75,66.3 							"/>
							<polygon class="st69" points="40.3,95 29.4,115.6 49.3,111.7 							"/>
							<polygon class="st70" points="29.4,115.6 30.2,121.7 49.3,111.7 							"/>
							<polygon class="st71" points="30.2,121.7 17.6,122 29.4,115.6 							"/>
							<polygon class="st72" points="19.1,109 29.4,115.6 17.6,122 							"/>
							<polygon class="st73" points="105.4,106 111.6,116.2 105.4,122.5 							"/>
							<polygon class="st74" points="121.3,119.8 114.5,127.6 111.6,116.2 							"/>
							<polygon class="st75" points="105.4,122.5 114.5,127.6 111.6,116.2 							"/>
							<polygon class="st76" points="27.3,99.2 29.4,115.6 19.1,109 							"/>
							<polygon class="st77" points="40.3,95 27.3,99.2 29.4,115.6 							"/>
							<polygon class="st78" points="40.3,95 26.9,84.3 27.3,99.2 							"/>
							<polygon class="st79" points="62.5,99.5 58.3,71.2 75,66.3 							"/>
							<polygon class="st80" points="58.3,71.2 40.3,95 62.5,99.5 							"/>
							<polygon class="st81" points="38.8,72 40.3,95 58.3,71.2 							"/>
							<polygon class="st82" points="37.9,58 26.5,68.7 38.8,72 							"/>
							<polygon class="st83" points="26.5,68.7 26.9,84.3 38.8,72 							"/>
							<polygon class="st84" points="38.8,72 26.9,84.3 40.3,95 							"/>
							<polygon class="st85" points="37.9,58 38.8,72 58.3,71.2 							"/>
							<polygon class="st87" points="30.2,121.7 35.1,132.1 39.4,124.4 							"/>
							<polygon class="st88" points="79.4,132.2 71.1,132.7 79.4,120 							"/>
							<polygon class="st89" points="71.1,132.7 63.9,139.4 62.3,124.7 							"/>
							<polygon class="st90" points="49.3,111.7 51.7,131.6 62.3,124.7 							"/>
							<polygon class="st91" points="51.7,131.6 63.9,139.4 62.3,124.7 							"/>
							<polygon class="st92" points="177.6,45.5 181.4,49.8 186.2,39.7 							"/>
							<polygon class="st93" points="191.1,54.1 192.3,57.5 197.8,53.5 							"/>
							<polygon class="st94" points="199.2,61.4 208.5,58.3 208.8,64.4 							"/>
							<polygon class="st95" points="199.4,70.1 202.6,76.2 206.5,72.7 							"/>
							<polygon class="st96" points="178.8,81.7 186.5,77.2 190.1,90.2 							"/>
							<polygon class="st92" points="174.2,90.1 177,87.6 171.8,84.8 							"/>
							<polygon class="st97" points="172.1,99 170.3,95.3 177.8,94.4 							"/>
							<polygon class="st98" points="179.3,101.6 182.5,107.1 189.8,98.8 							"/>
							<polygon class="st99" points="202.3,102.7 208.5,99.7 200.2,92.1 							"/>
							<polygon class="st100" points="201.9,79.5 216,80.5 212.6,89.5 							"/>
							<polygon class="st101" points="220.5,67.4 226.5,61.4 233.1,73.9 							"/>
							<polygon class="st102" points="224.3,88.2 227.3,90.8 230.4,84.1 							"/>
							<polygon class="st103" points="232.4,97.2 233.9,101.5 240.1,97 							"/>
							<polygon class="st104" points="248.6,81.5 253.9,82.9 254.8,71.8 							"/>
							<polygon class="st105" points="259.1,93 261.6,97 266.9,91.9 							"/>
							<polygon class="st106" points="181.2,64.9 183.7,68.9 189,63.8 							"/>
							<polygon class="st107" points="270.7,76.5 275,82.5 281.7,73.2 							"/>
							<polygon class="st108" points="277.6,95.6 279.7,100.3 286.9,96.3 							"/>
						</g>
					</g>
					<g>
						<path class="st109" d="M123.4,89.5v4.1h10.6v5.6h-10.6v4.2h10.6v5.6h-12.8h-3.5V83.9h5.6v0h10.6v5.6H123.4z"/>
						<path class="st109" d="M144.4,109h-5.6V83.9h8.4c1.3,0,2.5,0.2,3.6,0.7c1.1,0.5,2.1,1.1,2.9,2c0.8,0.8,1.5,1.8,2,2.9
							c0.5,1.1,0.7,2.3,0.7,3.5c0,1.5-0.3,2.9-1,4.2c-0.7,1.3-1.6,2.3-2.7,3.2l4.9,8.5h-6.4l-3.8-6.7h-0.1h-2.8V109z M144.4,96.7
							h2.8c0.5,0,1-0.1,1.4-0.3c0.4-0.2,0.8-0.5,1.2-0.8c0.3-0.3,0.6-0.7,0.8-1.1c0.2-0.4,0.3-0.9,0.3-1.4c0-0.5-0.1-1-0.3-1.4
							c-0.2-0.4-0.5-0.8-0.8-1.1c-0.3-0.3-0.7-0.6-1.2-0.8c-0.4-0.2-0.9-0.3-1.4-0.3h-2.8V96.7z"/>
					</g>
				</g>
				<g>
					<g>
						<linearGradient id="SVGID_1_" gradientUnits="userSpaceOnUse" x1="306.3927" y1="78.9186" x2="357.144" y2="38.1757">
							<stop  offset="9.675886e-02" style="stop-color:#9ED8F7"/>
							<stop  offset="0.3163" style="stop-color:#9EB9E1"/>
							<stop  offset="0.4974" style="stop-color:#A26AA8"/>
							<stop  offset="0.6932" style="stop-color:#B34984"/>
							<stop  offset="0.903" style="stop-color:#E30070"/>
						</linearGradient>
						<polygon class="st110" points="293.9,73.3 317.5,85.6 352.5,39.2 						"/>
						<linearGradient id="SVGID_2_" gradientUnits="userSpaceOnUse" x1="289.9365" y1="56.258" x2="352.5439" y2="56.258">
							<stop  offset="6.255279e-02" style="stop-color:#22B0E6"/>
							<stop  offset="0.3917" style="stop-color:#5B77B9"/>
							<stop  offset="0.6713" style="stop-color:#8C3D8E"/>
							<stop  offset="1" style="stop-color:#732281"/>
						</linearGradient>
						<polygon class="st111" points="289.9,71.2 293.9,73.3 352.5,39.2 						"/>
						<linearGradient id="SVGID_3_" gradientUnits="userSpaceOnUse" x1="287.5905" y1="65.474" x2="352.5704" y2="32.7665">
							<stop  offset="0.196" style="stop-color:#97D5F6"/>
							<stop  offset="0.4398" style="stop-color:#A2A0CE"/>
							<stop  offset="0.6132" style="stop-color:#AA669A"/>
							<stop  offset="0.7946" style="stop-color:#B83D7F"/>
							<stop  offset="1" style="stop-color:#E30070"/>
						</linearGradient>
						<polygon class="st112" points="289.9,71.2 279.8,62.5 352.5,39.2 						"/>
						<polygon class="st113" points="289.9,71.2 292.5,88.2 293.9,73.3 						"/>
						<polygon class="st114" points="292.5,88.2 293.9,73.3 304.1,78.7 						"/>
					</g>
				</g>
			</g>
		</g>
		<g>
			<g>
				<path class="st115" d="M129.2,197.7c-1.4,0-2.8-0.3-4-0.8c-1.2-0.5-2.3-1.3-3.3-2.2c-0.9-0.9-1.7-2-2.2-3.3
					c-0.5-1.2-0.8-2.6-0.8-4v-16.8h6v16.8c0,0.6,0.1,1.1,0.3,1.7c0.2,0.5,0.5,1,0.9,1.4c0.4,0.4,0.8,0.7,1.3,0.9
					c0.5,0.2,1.1,0.3,1.6,0.3c0.6,0,1.1-0.1,1.7-0.3c0.5-0.2,1-0.5,1.4-0.9c0.4-0.4,0.7-0.8,0.9-1.4c0.2-0.5,0.3-1.1,0.3-1.7v-16.8
					h6v16.8c0,1.4-0.3,2.8-0.8,4c-0.5,1.2-1.3,2.3-2.2,3.3c-0.9,0.9-2,1.7-3.3,2.2C131.9,197.4,130.6,197.7,129.2,197.7z"/>
				<path class="st115" d="M148.8,197.7h-6v-27.1h9.1c1.4,0,2.7,0.3,3.9,0.8c1.2,0.5,2.3,1.2,3.2,2.1c0.9,0.9,1.6,2,2.1,3.2
					c0.5,1.2,0.8,2.5,0.8,3.8c0,1.6-0.4,3.2-1.1,4.6c-0.7,1.4-1.7,2.5-2.9,3.4l5.2,9.2H156l-4.1-7.3h-0.1h-3V197.7z M148.8,184.4h3
					c0.5,0,1.1-0.1,1.5-0.3c0.5-0.2,0.9-0.5,1.3-0.8c0.4-0.4,0.6-0.8,0.8-1.2s0.3-1,0.3-1.5c0-0.5-0.1-1-0.3-1.5
					c-0.2-0.5-0.5-0.9-0.8-1.2c-0.4-0.4-0.8-0.6-1.3-0.8c-0.5-0.2-1-0.3-1.5-0.3h-3V184.4z"/>
				<path class="st115" d="M183.1,183.8c0.7,0.7,1.2,1.6,1.6,2.5c0.4,0.9,0.6,2,0.6,3.1c0,1.1-0.2,2.2-0.6,3.2c-0.4,1-1,1.9-1.8,2.6
					c-0.8,0.8-1.6,1.3-2.6,1.8c-1,0.4-2.1,0.6-3.2,0.6l-10.7,0.1v-27.1h10.2c1.1,0,2.2,0.2,3.2,0.6c1,0.4,1.9,1,2.6,1.8
					c0.8,0.8,1.3,1.6,1.8,2.7c0.4,1,0.6,2.1,0.6,3.2c0,0.9-0.1,1.8-0.4,2.6C184,182.3,183.6,183.1,183.1,183.8z M172.3,176.6v4.5
					h4.2c0.6,0,1.1-0.3,1.5-0.7c0.4-0.4,0.6-0.9,0.6-1.5c0-0.6-0.2-1.2-0.7-1.6c-0.4-0.4-1-0.6-1.6-0.6H172.3z M177,191.6
					c0.6,0,1.2-0.2,1.6-0.6c0.4-0.4,0.6-1,0.6-1.6c0-0.6-0.2-1.2-0.6-1.6c-0.4-0.4-1-0.6-1.6-0.6h-4.6v4.5H177z"/>
				<path class="st115" d="M203.9,170.5l6.4,27.1h-6.2l-0.7-3h-8l-0.7,3h-6.2l6.4-27.1H203.9z M196.9,188.6h5.1l-2.6-10.9
					L196.9,188.6z"/>
				<path class="st115" d="M228.3,197.7l-8.6-15.5v15.5h-6v-27.1h6.5l8.6,15.5v-15.5h6v27.1H228.3z"/>
				<path class="st115" d="M251.7,170.6c1.9,0,3.6,0.4,5.3,1.1c1.6,0.7,3.1,1.7,4.3,2.9c1.2,1.2,2.2,2.6,2.9,4.3
					c0.7,1.6,1.1,3.4,1.1,5.3c0,1.9-0.4,3.7-1.1,5.3c-0.7,1.6-1.7,3.1-2.9,4.3c-1.2,1.2-2.7,2.2-4.3,2.9c-1.6,0.7-3.4,1.1-5.3,1.1
					c-1.9,0-3.6-0.4-5.3-1.1c-1.6-0.7-3.1-1.7-4.3-2.9c-1.2-1.2-2.2-2.6-2.9-4.3c-0.7-1.6-1.1-3.4-1.1-5.3c0-1.9,0.4-3.6,1.1-5.3
					c0.7-1.6,1.7-3.1,2.9-4.3c1.2-1.2,2.7-2.2,4.3-2.9C248,170.9,249.8,170.6,251.7,170.6z M251.7,191.6c1,0,2-0.2,2.9-0.6
					c0.9-0.4,1.7-0.9,2.4-1.6c0.7-0.7,1.2-1.5,1.6-2.4c0.4-0.9,0.6-1.9,0.6-2.9c0-1-0.2-2-0.6-2.9c-0.4-0.9-0.9-1.7-1.6-2.4
					c-0.7-0.7-1.5-1.2-2.4-1.6c-0.9-0.4-1.9-0.6-2.9-0.6s-2,0.2-2.9,0.6c-0.9,0.4-1.7,0.9-2.4,1.6c-0.7,0.7-1.2,1.5-1.6,2.4
					c-0.4,0.9-0.6,1.9-0.6,2.9c0,1,0.2,2,0.6,2.9c0.4,0.9,0.9,1.7,1.6,2.4c0.7,0.7,1.5,1.2,2.4,1.6
					C249.6,191.4,250.6,191.6,251.7,191.6z"/>
				<path class="st115" d="M279.2,198.2c-1,0-2-0.1-3-0.4c-1-0.2-1.9-0.6-2.8-1.1c-1.6-0.9-2.8-2-3.6-3.3c-0.9-1.4-1.3-2.9-1.3-4.5
					h7.3c0,0.7,0.2,1.3,0.6,1.7c0.4,0.4,0.7,0.7,1,0.8c0.5,0.3,1.1,0.5,1.7,0.5c0.6,0,1.2-0.1,1.8-0.3c0.4-0.1,0.7-0.3,1-0.6
					c0.2-0.2,0.4-0.4,0.6-0.6c0.1-0.2,0.2-0.4,0.2-0.6c0-0.2,0-0.4,0-0.5c0-0.1,0-0.3,0-0.5c0-0.2-0.1-0.4-0.2-0.6
					c-0.1-0.2-0.3-0.4-0.6-0.6c-0.2-0.2-0.6-0.4-1-0.6c-0.3-0.1-0.7-0.2-1-0.3c-0.4-0.1-0.7-0.2-1.1-0.3c-0.7-0.2-1.5-0.4-2.3-0.7
					c-0.8-0.2-1.6-0.6-2.3-1c-1-0.5-1.9-1.2-2.6-2c-0.7-0.8-1.2-1.7-1.5-2.6c-0.3-0.9-0.4-1.9-0.3-2.9s0.4-1.9,1-2.9
					c0.5-0.8,1.2-1.6,2-2.2c0.8-0.6,1.6-1.1,2.6-1.5c1-0.4,2-0.6,3.1-0.6c1.1-0.1,2.2,0,3.3,0.3c1.1,0.2,2.1,0.6,3,1.1
					c0.9,0.5,1.7,1.1,2.3,1.7c0.6,0.7,1.1,1.4,1.5,2.3c0.3,0.8,0.5,1.7,0.5,2.6h-7.3c0-0.6-0.2-1-0.6-1.2c-0.4-0.2-0.8-0.4-1.1-0.4
					c-0.1,0-0.2,0-0.4-0.1c-0.2,0-0.5,0-0.7,0c-0.3,0-0.6,0.1-0.8,0.3c-0.3,0.1-0.5,0.4-0.7,0.6c-0.2,0.4-0.3,0.8-0.1,1.2
					c0.1,0.4,0.4,0.8,0.9,1c0.4,0.2,0.9,0.4,1.3,0.5c0.5,0.2,1,0.3,1.6,0.5c0.5,0.1,1,0.3,1.5,0.4c0.5,0.1,1,0.3,1.5,0.5
					c1.9,0.7,3.4,1.8,4.5,3.2c1.1,1.4,1.6,3,1.6,4.8c0,1.7-0.5,3.3-1.6,4.7c-1.1,1.4-2.6,2.5-4.5,3.2c-0.7,0.3-1.5,0.5-2.3,0.6
					C280.8,198.1,280,198.2,279.2,198.2z"/>
				<g>
					<path class="st116" d="M126.9,137.6c1.4,0,2.7,0.3,3.9,0.8c1.2,0.5,2.3,1.2,3.2,2.1c0.9,0.9,1.6,2,2.1,3.2
						c0.5,1.2,0.8,2.5,0.8,3.8c0,1.4-0.3,2.7-0.8,3.9c-0.5,1.2-1.2,2.3-2.1,3.2c-0.9,0.9-2,1.6-3.2,2.1c-1.2,0.5-2.5,0.8-3.9,0.8h-3
						v7.2h-6v-27.1H126.9z M126.9,151.4c0.5,0,1.1-0.1,1.5-0.3c0.5-0.2,0.9-0.5,1.3-0.8c0.4-0.4,0.6-0.8,0.8-1.2
						c0.2-0.5,0.3-1,0.3-1.5c0-0.5-0.1-1-0.3-1.5c-0.2-0.5-0.5-0.9-0.8-1.2c-0.4-0.4-0.8-0.6-1.3-0.8c-0.5-0.2-1-0.3-1.5-0.3h-3v7.8
						H126.9z"/>
					<path class="st116" d="M155.9,137.5l6.4,27.1h-6.2l-0.7-3h-8l-0.7,3h-6.2l6.4-27.1H155.9z M148.8,155.6h5.1l-2.6-10.9
						L148.8,155.6z"/>
					<path class="st116" d="M172.8,164.7h-6v-27.1h9.1c1.4,0,2.7,0.3,3.9,0.8c1.2,0.5,2.3,1.2,3.2,2.1c0.9,0.9,1.6,2,2.1,3.2
						c0.5,1.2,0.8,2.5,0.8,3.8c0,1.6-0.4,3.2-1.1,4.6c-0.7,1.4-1.7,2.5-2.9,3.4l5.2,9.2H180l-4.1-7.3h-0.1h-3V164.7z M172.8,151.4h3
						c0.5,0,1.1-0.1,1.5-0.3c0.5-0.2,0.9-0.5,1.3-0.8c0.4-0.4,0.6-0.8,0.8-1.2c0.2-0.5,0.3-1,0.3-1.5c0-0.5-0.1-1-0.3-1.5
						c-0.2-0.5-0.5-0.9-0.8-1.2c-0.4-0.4-0.8-0.6-1.3-0.8c-0.5-0.2-1-0.3-1.5-0.3h-3V151.4z"/>
					<path class="st116" d="M203.9,164.7l-0.8-0.1c-1.7-0.2-3.3-0.6-4.7-1.4c-1.5-0.8-2.7-1.8-3.8-3c-1.1-1.2-1.9-2.6-2.6-4.1
						c-0.6-1.6-0.9-3.2-0.9-5c0-1.9,0.4-3.6,1.1-5.3c0.7-1.6,1.7-3.1,2.9-4.3c1.2-1.2,2.7-2.2,4.3-2.9c1.6-0.7,3.4-1.1,5.3-1.1
						c1.9,0,3.6,0.4,5.3,1.1c1.6,0.7,3.1,1.7,4.3,2.9c1.2,1.2,2.2,2.6,2.9,4.3c0.7,1.6,1.1,3.4,1.1,5.3c0,1.4-0.2,2.7-0.6,4
						c-0.4,1.3-1,2.4-1.7,3.6h2.3v6H203.9z M197,151.1c0,1,0.2,2,0.6,2.9c0.4,0.9,0.9,1.7,1.6,2.4c0.7,0.7,1.5,1.2,2.4,1.6
						c0.9,0.4,1.9,0.6,2.9,0.6c1,0,2-0.2,2.9-0.6c0.9-0.4,1.7-0.9,2.4-1.6c0.7-0.7,1.2-1.5,1.6-2.4c0.4-0.9,0.6-1.9,0.6-2.9
						c0-1-0.2-2-0.6-2.9c-0.4-0.9-0.9-1.7-1.6-2.4c-0.7-0.7-1.5-1.2-2.4-1.6c-0.9-0.4-1.9-0.6-2.9-0.6c-1,0-2,0.2-2.9,0.6
						c-0.9,0.4-1.7,0.9-2.4,1.6c-0.7,0.7-1.2,1.5-1.6,2.4C197.2,149.1,197,150.1,197,151.1z"/>
					<path class="st116" d="M232.5,164.7c-1.4,0-2.8-0.3-4-0.8c-1.2-0.5-2.3-1.3-3.3-2.2c-0.9-0.9-1.7-2-2.2-3.3
						c-0.5-1.2-0.8-2.6-0.8-4v-16.8h6v16.8c0,0.6,0.1,1.1,0.3,1.7c0.2,0.5,0.5,1,0.9,1.4c0.4,0.4,0.8,0.7,1.3,0.9
						c0.5,0.2,1.1,0.3,1.6,0.3c0.6,0,1.1-0.1,1.7-0.3c0.5-0.2,1-0.5,1.4-0.9c0.4-0.4,0.7-0.8,0.9-1.4c0.2-0.5,0.3-1.1,0.3-1.7v-16.8
						h6v16.8c0,1.4-0.3,2.8-0.8,4c-0.5,1.2-1.3,2.3-2.2,3.3c-0.9,0.9-2,1.7-3.3,2.2C235.2,164.4,233.9,164.7,232.5,164.7z"/>
					<path class="st116" d="M252.9,143.6v4.5h11.5v6h-11.5v4.5h11.5v6h-13.8h-3.8v-27.1h6v0h11.5v6H252.9z"/>
					<path class="st116" d="M279.2,165.2c-1,0-2-0.1-3-0.4c-1-0.2-1.9-0.6-2.8-1.1c-1.6-0.9-2.8-2-3.6-3.3c-0.9-1.4-1.3-2.9-1.3-4.5
						h7.3c0,0.7,0.2,1.3,0.6,1.7c0.4,0.4,0.7,0.7,1,0.8c0.5,0.3,1.1,0.5,1.7,0.5c0.6,0,1.2-0.1,1.8-0.3c0.4-0.1,0.7-0.3,1-0.6
						c0.2-0.2,0.4-0.4,0.6-0.6c0.1-0.2,0.2-0.4,0.2-0.6c0-0.2,0-0.4,0-0.5c0-0.1,0-0.3,0-0.5c0-0.2-0.1-0.4-0.2-0.6
						c-0.1-0.2-0.3-0.4-0.6-0.6c-0.2-0.2-0.6-0.4-1-0.6c-0.3-0.1-0.7-0.2-1-0.3c-0.4-0.1-0.7-0.2-1.1-0.3c-0.7-0.2-1.5-0.4-2.3-0.7
						c-0.8-0.2-1.6-0.6-2.3-1c-1-0.5-1.9-1.2-2.6-2c-0.7-0.8-1.2-1.7-1.5-2.6c-0.3-0.9-0.4-1.9-0.3-2.9s0.4-1.9,1-2.9
						c0.5-0.8,1.2-1.6,2-2.2c0.8-0.6,1.6-1.1,2.6-1.5c1-0.4,2-0.6,3.1-0.6c1.1-0.1,2.2,0,3.3,0.3c1.1,0.2,2.1,0.6,3,1.1
						s1.7,1.1,2.3,1.7c0.6,0.7,1.1,1.4,1.5,2.3c0.3,0.8,0.5,1.7,0.5,2.6h-7.3c0-0.6-0.2-1-0.6-1.2c-0.4-0.2-0.8-0.4-1.1-0.4
						c-0.1,0-0.2,0-0.4-0.1c-0.2,0-0.5,0-0.7,0c-0.3,0-0.6,0.1-0.8,0.3c-0.3,0.1-0.5,0.4-0.7,0.6c-0.2,0.4-0.3,0.8-0.1,1.2
						c0.1,0.4,0.4,0.8,0.9,1c0.4,0.2,0.9,0.4,1.3,0.5c0.5,0.2,1,0.3,1.6,0.5c0.5,0.1,1,0.3,1.5,0.4c0.5,0.1,1,0.3,1.5,0.5
						c1.9,0.7,3.4,1.8,4.5,3.2c1.1,1.4,1.6,3,1.6,4.8c0,1.7-0.5,3.3-1.6,4.7c-1.1,1.4-2.6,2.5-4.5,3.2c-0.7,0.3-1.5,0.5-2.3,0.6
						C280.8,165.1,280,165.2,279.2,165.2z"/>
				</g>
			</g>
			<g>
				<path class="st117" d="M121.9,131.6c-0.5,0-1.1-0.1-1.6-0.3c-0.5-0.2-1-0.5-1.4-0.9c-0.4-0.4-0.7-0.9-0.9-1.4
					c-0.2-0.5-0.3-1-0.3-1.6c0-0.6,0.1-1.1,0.3-1.6c0.2-0.5,0.5-0.9,0.9-1.3c0.4-0.4,0.9-0.7,1.4-0.9c0.5-0.2,1-0.3,1.6-0.3
					c0.5,0,1.1,0.1,1.6,0.3c0.5,0.2,1,0.5,1.4,0.9l-1.4,1.3c-0.2-0.2-0.5-0.4-0.7-0.5c-0.3-0.1-0.6-0.2-0.9-0.2
					c-0.3,0-0.6,0.1-0.8,0.2s-0.5,0.3-0.7,0.5c-0.2,0.2-0.4,0.5-0.5,0.7c-0.1,0.3-0.2,0.6-0.2,0.9c0,0.3,0.1,0.6,0.2,0.9
					c0.1,0.3,0.3,0.5,0.5,0.7c0.2,0.2,0.5,0.4,0.7,0.5c0.3,0.1,0.6,0.2,0.8,0.2c0.3,0,0.6-0.1,0.9-0.2c0.3-0.1,0.5-0.3,0.7-0.5
					l1.4,1.4c-0.4,0.4-0.9,0.7-1.4,0.9C123,131.5,122.5,131.6,121.9,131.6z"/>
				<path class="st117" d="M129.6,123.3c0.6,0,1.1,0.1,1.6,0.3c0.5,0.2,0.9,0.5,1.3,0.9c0.4,0.4,0.7,0.8,0.9,1.3
					c0.2,0.5,0.3,1,0.3,1.6c0,0.6-0.1,1.1-0.3,1.6c-0.2,0.5-0.5,0.9-0.9,1.3c-0.4,0.4-0.8,0.7-1.3,0.9c-0.5,0.2-1,0.3-1.6,0.3
					c-0.6,0-1.1-0.1-1.6-0.3c-0.5-0.2-0.9-0.5-1.3-0.9c-0.4-0.4-0.7-0.8-0.9-1.3c-0.2-0.5-0.3-1-0.3-1.6c0-0.6,0.1-1.1,0.3-1.6
					c0.2-0.5,0.5-0.9,0.9-1.3c0.4-0.4,0.8-0.7,1.3-0.9C128.5,123.4,129,123.3,129.6,123.3z M129.6,129.7c0.3,0,0.6-0.1,0.9-0.2
					c0.3-0.1,0.5-0.3,0.7-0.5c0.2-0.2,0.4-0.4,0.5-0.7c0.1-0.3,0.2-0.6,0.2-0.9c0-0.3-0.1-0.6-0.2-0.9c-0.1-0.3-0.3-0.5-0.5-0.7
					c-0.2-0.2-0.4-0.4-0.7-0.5c-0.3-0.1-0.6-0.2-0.9-0.2c-0.3,0-0.6,0.1-0.9,0.2c-0.3,0.1-0.5,0.3-0.7,0.5c-0.2,0.2-0.4,0.4-0.5,0.7
					c-0.1,0.3-0.2,0.6-0.2,0.9c0,0.3,0.1,0.6,0.2,0.9c0.1,0.3,0.3,0.5,0.5,0.7c0.2,0.2,0.4,0.4,0.7,0.5
					C129,129.6,129.3,129.7,129.6,129.7z"/>
				<path class="st117" d="M139.7,123.3h1.9v8.3h-2.1l-2.7-4.8v4.8h-1.9v-8.3h2.1l2.7,4.8V123.3z"/>
				<path class="st117" d="M150,126.9v4.7h-1.9v-0.2c-0.2,0.1-0.4,0.1-0.7,0.2c-0.2,0-0.4,0.1-0.7,0.1c-0.5,0-1.1-0.1-1.6-0.3
					c-0.5-0.2-1-0.5-1.4-0.9c-0.4-0.4-0.7-0.9-0.9-1.4c-0.2-0.5-0.3-1-0.3-1.6c0-0.5,0.1-1.1,0.3-1.6c0.2-0.5,0.5-1,0.9-1.4
					c0.4-0.4,0.9-0.7,1.4-0.9c0.5-0.2,1-0.3,1.6-0.3c0.5,0,1.1,0.1,1.6,0.3c0.5,0.2,1,0.5,1.4,0.9l-1.4,1.4
					c-0.2-0.2-0.5-0.4-0.8-0.5s-0.6-0.2-0.9-0.2c-0.3,0-0.6,0.1-0.9,0.2c-0.3,0.1-0.5,0.3-0.8,0.5c-0.2,0.2-0.4,0.5-0.5,0.7
					c-0.1,0.3-0.2,0.6-0.2,0.8c0,0.3,0.1,0.6,0.2,0.8c0.1,0.3,0.3,0.5,0.5,0.7c0.2,0.2,0.4,0.3,0.7,0.5c0.2,0.1,0.5,0.2,0.8,0.2
					c0.3,0,0.5,0,0.8-0.1c0.3-0.1,0.5-0.2,0.7-0.3v-0.4h-1.7v-1.9H150z"/>
				<path class="st117" d="M154,129.4c-0.1,0-0.2,0-0.3,0c-0.1,0-0.2,0-0.3,0v2.1h-1.9v-8.3h1.9c0.5,0,0.9,0.1,1.3,0.3
					c0.4,0.2,0.8,0.4,1.1,0.7c0.3,0.3,0.6,0.6,0.7,1c0.2,0.4,0.3,0.8,0.3,1.2c0,0.4-0.1,0.9-0.3,1.2c-0.2,0.4-0.5,0.7-0.8,1l1.8,3
					h-2.3L154,129.4z M153.4,127.6c0.2,0,0.4,0,0.6-0.1c0.2-0.1,0.3-0.1,0.5-0.3c0.1-0.1,0.2-0.2,0.3-0.4c0.1-0.1,0.1-0.3,0.1-0.4
					c0-0.2,0-0.3-0.1-0.4c-0.1-0.1-0.2-0.3-0.3-0.4c-0.1-0.1-0.3-0.2-0.5-0.3c-0.2-0.1-0.4-0.1-0.6-0.1V127.6z"/>
				<path class="st117" d="M164.3,125.2h-3.4v1.3h2.8v1.9h-2.8v1.3h3.4v1.9h-5.4v-8.3l5.4,0V125.2z"/>
				<path class="st117" d="M168.3,131.7c-0.3,0-0.5,0-0.8-0.1c-0.3-0.1-0.5-0.2-0.7-0.3c-0.4-0.3-0.7-0.6-1-1
					c-0.2-0.4-0.3-0.9-0.3-1.4h1.9c0,0.2,0,0.4,0.1,0.5c0.1,0.1,0.2,0.2,0.3,0.3c0.1,0.1,0.3,0.1,0.4,0.1c0.2,0,0.3,0,0.5-0.1
					c0.1,0,0.2-0.1,0.3-0.2c0.1-0.1,0.1-0.1,0.1-0.2s0.1-0.1,0.1-0.2c0-0.1,0-0.1,0-0.1c0,0,0-0.1,0-0.1c0-0.1,0-0.1-0.1-0.2
					c0-0.1-0.1-0.1-0.1-0.2s-0.1-0.1-0.3-0.2c-0.1,0-0.2-0.1-0.3-0.1c-0.1,0-0.2-0.1-0.3-0.1c-0.2-0.1-0.4-0.1-0.6-0.2
					c-0.2-0.1-0.4-0.2-0.6-0.3c-0.3-0.2-0.5-0.4-0.7-0.6c-0.2-0.2-0.3-0.5-0.4-0.8c-0.1-0.3-0.1-0.6-0.1-0.9c0-0.3,0.1-0.6,0.3-0.9
					c0.1-0.3,0.3-0.5,0.5-0.7c0.2-0.2,0.4-0.3,0.7-0.4s0.5-0.2,0.8-0.2c0.3,0,0.6,0,0.9,0.1c0.3,0.1,0.5,0.2,0.8,0.3
					c0.2,0.1,0.4,0.3,0.6,0.5c0.2,0.2,0.3,0.4,0.4,0.7c0.1,0.3,0.1,0.5,0.1,0.8h-1.9c0-0.2-0.1-0.3-0.2-0.4
					c-0.1-0.1-0.2-0.1-0.3-0.1c0,0-0.1,0-0.1,0c-0.1,0-0.1,0-0.2,0s-0.1,0-0.2,0.1c-0.1,0-0.1,0.1-0.2,0.2c-0.1,0.1-0.1,0.2,0,0.4
					c0,0.1,0.1,0.2,0.2,0.3c0.1,0.1,0.2,0.1,0.4,0.2c0.1,0,0.3,0.1,0.4,0.1c0.1,0,0.3,0.1,0.4,0.1c0.1,0,0.3,0.1,0.4,0.2
					c0.5,0.2,0.9,0.6,1.2,1c0.3,0.4,0.4,0.9,0.4,1.5c0,0.5-0.1,1-0.4,1.4s-0.7,0.8-1.2,1c-0.2,0.1-0.4,0.2-0.6,0.2
					C168.7,131.7,168.5,131.7,168.3,131.7z"/>
				<path class="st117" d="M176.1,123.3c0.6,0,1.1,0.1,1.6,0.3c0.5,0.2,0.9,0.5,1.3,0.9c0.4,0.4,0.7,0.8,0.9,1.3
					c0.2,0.5,0.3,1,0.3,1.6c0,0.6-0.1,1.1-0.3,1.6c-0.2,0.5-0.5,0.9-0.9,1.3c-0.4,0.4-0.8,0.7-1.3,0.9c-0.5,0.2-1,0.3-1.6,0.3
					c-0.6,0-1.1-0.1-1.6-0.3c-0.5-0.2-0.9-0.5-1.3-0.9c-0.4-0.4-0.7-0.8-0.9-1.3c-0.2-0.5-0.3-1-0.3-1.6c0-0.6,0.1-1.1,0.3-1.6
					c0.2-0.5,0.5-0.9,0.9-1.3c0.4-0.4,0.8-0.7,1.3-0.9C175,123.4,175.5,123.3,176.1,123.3z M176.1,129.7c0.3,0,0.6-0.1,0.9-0.2
					c0.3-0.1,0.5-0.3,0.7-0.5c0.2-0.2,0.4-0.4,0.5-0.7c0.1-0.3,0.2-0.6,0.2-0.9c0-0.3-0.1-0.6-0.2-0.9c-0.1-0.3-0.3-0.5-0.5-0.7
					c-0.2-0.2-0.4-0.4-0.7-0.5c-0.3-0.1-0.6-0.2-0.9-0.2c-0.3,0-0.6,0.1-0.9,0.2c-0.3,0.1-0.5,0.3-0.7,0.5c-0.2,0.2-0.4,0.4-0.5,0.7
					c-0.1,0.3-0.2,0.6-0.2,0.9c0,0.3,0.1,0.6,0.2,0.9c0.1,0.3,0.3,0.5,0.5,0.7c0.2,0.2,0.4,0.4,0.7,0.5
					C175.5,129.6,175.8,129.7,176.1,129.7z"/>
				<path class="st117" d="M185.8,131.6h-1.9v-8.3h1.9V131.6z"/>
				<path class="st117" d="M192.4,123.3h1.9v8.3h-2.1l-2.7-4.8v4.8h-1.9v-8.3h2.1l2.7,4.8V123.3z"/>
				<path class="st117" d="M200.7,123.2v1.9h-1.6v6.4h-1.9v-6.4h-1.6v-1.9H200.7z"/>
				<path class="st117" d="M207.3,125.2h-3.4v1.3h2.8v1.9h-2.8v1.3h3.4v1.9h-5.4v-8.3l5.4,0V125.2z"/>
				<path class="st117" d="M211.4,129.4c-0.1,0-0.2,0-0.3,0c-0.1,0-0.2,0-0.3,0v2.1h-1.9v-8.3h1.9c0.5,0,0.9,0.1,1.3,0.3
					s0.8,0.4,1.1,0.7c0.3,0.3,0.6,0.6,0.7,1c0.2,0.4,0.3,0.8,0.3,1.2c0,0.4-0.1,0.9-0.3,1.2c-0.2,0.4-0.5,0.7-0.8,1l1.8,3h-2.3
					L211.4,129.4z M210.8,127.6c0.2,0,0.4,0,0.6-0.1c0.2-0.1,0.3-0.1,0.5-0.3c0.1-0.1,0.3-0.2,0.3-0.4c0.1-0.1,0.1-0.3,0.1-0.4
					c0-0.2,0-0.3-0.1-0.4c-0.1-0.1-0.2-0.3-0.3-0.4c-0.1-0.1-0.3-0.2-0.5-0.3c-0.2-0.1-0.4-0.1-0.6-0.1V127.6z"/>
				<path class="st117" d="M221.2,123.3h1.9v8.3H221l-2.7-4.8v4.8h-1.9v-8.3h2.1l2.7,4.8V123.3z"/>
				<path class="st117" d="M229.5,131.6l-0.3-1h-2.6l-0.3,1h-2l2.8-8.3h1.8l2.7,8.3H229.5z M227.2,128.7h1.4l-0.7-2L227.2,128.7z"/>
				<path class="st117" d="M236.3,131.6c-0.5,0-1.1-0.1-1.6-0.3c-0.5-0.2-1-0.5-1.4-0.9c-0.4-0.4-0.7-0.9-0.9-1.4
					c-0.2-0.5-0.3-1-0.3-1.6c0-0.6,0.1-1.1,0.3-1.6c0.2-0.5,0.5-0.9,0.9-1.3c0.4-0.4,0.9-0.7,1.4-0.9c0.5-0.2,1-0.3,1.6-0.3
					c0.5,0,1.1,0.1,1.6,0.3c0.5,0.2,1,0.5,1.4,0.9l-1.4,1.3c-0.2-0.2-0.5-0.4-0.7-0.5c-0.3-0.1-0.6-0.2-0.9-0.2
					c-0.3,0-0.6,0.1-0.8,0.2c-0.3,0.1-0.5,0.3-0.7,0.5c-0.2,0.2-0.4,0.5-0.5,0.7c-0.1,0.3-0.2,0.6-0.2,0.9c0,0.3,0.1,0.6,0.2,0.9
					c0.1,0.3,0.3,0.5,0.5,0.7c0.2,0.2,0.5,0.4,0.7,0.5c0.3,0.1,0.6,0.2,0.8,0.2c0.3,0,0.6-0.1,0.9-0.2c0.3-0.1,0.5-0.3,0.7-0.5
					l1.4,1.4c-0.4,0.4-0.9,0.7-1.4,0.9S236.8,131.6,236.3,131.6z"/>
				<path class="st117" d="M242.3,131.6h-1.9v-8.3h1.9V131.6z"/>
				<path class="st117" d="M247.6,123.3c0.6,0,1.1,0.1,1.6,0.3c0.5,0.2,0.9,0.5,1.3,0.9c0.4,0.4,0.7,0.8,0.9,1.3s0.3,1,0.3,1.6
					c0,0.6-0.1,1.1-0.3,1.6c-0.2,0.5-0.5,0.9-0.9,1.3c-0.4,0.4-0.8,0.7-1.3,0.9c-0.5,0.2-1,0.3-1.6,0.3c-0.6,0-1.1-0.1-1.6-0.3
					c-0.5-0.2-0.9-0.5-1.3-0.9c-0.4-0.4-0.7-0.8-0.9-1.3c-0.2-0.5-0.3-1-0.3-1.6c0-0.6,0.1-1.1,0.3-1.6s0.5-0.9,0.9-1.3
					c0.4-0.4,0.8-0.7,1.3-0.9C246.5,123.4,247,123.3,247.6,123.3z M247.6,129.7c0.3,0,0.6-0.1,0.9-0.2c0.3-0.1,0.5-0.3,0.7-0.5
					c0.2-0.2,0.4-0.4,0.5-0.7c0.1-0.3,0.2-0.6,0.2-0.9c0-0.3-0.1-0.6-0.2-0.9c-0.1-0.3-0.3-0.5-0.5-0.7c-0.2-0.2-0.4-0.4-0.7-0.5
					c-0.3-0.1-0.6-0.2-0.9-0.2c-0.3,0-0.6,0.1-0.9,0.2c-0.3,0.1-0.5,0.3-0.7,0.5c-0.2,0.2-0.4,0.4-0.5,0.7c-0.1,0.3-0.2,0.6-0.2,0.9
					c0,0.3,0.1,0.6,0.2,0.9c0.1,0.3,0.3,0.5,0.5,0.7c0.2,0.2,0.4,0.4,0.7,0.5C247,129.6,247.3,129.7,247.6,129.7z"/>
				<path class="st117" d="M257.7,123.3h1.9v8.3h-2.1l-2.7-4.8v4.8h-1.9v-8.3h2.1l2.7,4.8V123.3z"/>
				<path class="st117" d="M266,131.6l-0.3-1h-2.6l-0.3,1h-2l2.8-8.3h1.8l2.7,8.3H266z M263.7,128.7h1.4l-0.7-2L263.7,128.7z"/>
				<path class="st117" d="M274.1,131.6h-5v-8.3h1.9v6.4h3V131.6z"/>
				<path class="st117" d="M279.6,123.2c0.6,0,1.1,0.2,1.6,0.4c0.5,0.2,0.9,0.5,1.3,0.9c0.4,0.4,0.6,0.8,0.9,1.3s0.3,1,0.3,1.6
					c0,0.6-0.1,1.1-0.3,1.6c-0.2,0.5-0.5,0.9-0.8,1.3c-0.4,0.4-0.8,0.7-1.3,0.9c-0.5,0.2-1,0.3-1.6,0.4h-1.9v-8.4L279.6,123.2
					L279.6,123.2z M279.6,129.7c0.3,0,0.6-0.1,0.8-0.2c0.3-0.1,0.5-0.3,0.7-0.5c0.2-0.2,0.3-0.4,0.4-0.7c0.1-0.3,0.2-0.5,0.2-0.8
					c0-0.3-0.1-0.6-0.2-0.8c-0.1-0.3-0.3-0.5-0.4-0.7c-0.2-0.2-0.4-0.4-0.7-0.5c-0.2-0.1-0.5-0.2-0.8-0.2V129.7z"/>
				<path class="st117" d="M289.9,125.2h-3.4v1.3h2.8v1.9h-2.8v1.3h3.4v1.9h-5.4v-8.3l5.4,0V125.2z"/>
			</g>
		</g>
		<g>
			<g>
				<polygon class="st118" points="79.4,81.4 95.5,98 105.3,81.4 				"/>
				<polygon class="st119" points="95.5,98 105.3,163.6 105.3,81.4 				"/>
				<polygon class="st120" points="95.5,98 62.5,99.5 79.4,81.4 				"/>
				<polygon class="st121" points="62.2,124.7 95.5,98 62.5,99.5 				"/>
				<polygon class="st122" points="95.5,98 79.4,120 62.2,124.7 				"/>
				<polygon class="st123" points="79.4,197.7 95.5,98 105.3,163.6 				"/>
				<polygon class="st124" points="79.4,120 95.5,98 79.4,197.7 				"/>
				<polygon class="st125" points="105.3,163.6 105.3,197.7 79.4,197.7 				"/>
			</g>
		</g>
	</g>
</g>
</svg>
